<mxfile host="app.diagrams.net" modified="2024-07-02T07:08:32.766Z" agent="Mozilla/5.0 (Windows NT 10.0; Win64; x64) AppleWebKit/537.36 (KHTML, like Gecko) Chrome/124.0.0.0 YaBrowser/24.6.0.0 Safari/537.36" etag="j27y9R9RgBYfKwBmOiz8" version="24.6.4" type="device">
  <diagram name="Страница — 1" id="9O3MCu8IIyaXXfVEf-Sb">
    <mxGraphModel dx="5010" dy="2875" grid="1" gridSize="10" guides="1" tooltips="1" connect="1" arrows="1" fold="1" page="1" pageScale="1" pageWidth="1169" pageHeight="1654" math="0" shadow="0">
      <root>
        <mxCell id="0" />
        <mxCell id="1" parent="0" />
        <mxCell id="5E39NEIYK46jYYsnsLjH-332" value="Клент&lt;br&gt;" style="shape=umlActor;verticalLabelPosition=bottom;verticalAlign=top;html=1;outlineConnect=0;" parent="1" vertex="1">
          <mxGeometry x="975" y="100" width="40" height="70" as="geometry" />
        </mxCell>
        <mxCell id="5E39NEIYK46jYYsnsLjH-333" value="Оформить заказ" style="shape=umlBoundary;whiteSpace=wrap;html=1;" parent="1" vertex="1">
          <mxGeometry x="1095" y="100" width="100" height="80" as="geometry" />
        </mxCell>
        <mxCell id="5E39NEIYK46jYYsnsLjH-334" value="Оплата" style="ellipse;shape=umlControl;whiteSpace=wrap;html=1;" parent="1" vertex="1">
          <mxGeometry x="1273.5" y="100" width="70" height="80" as="geometry" />
        </mxCell>
        <mxCell id="5E39NEIYK46jYYsnsLjH-335" value="Проверка" style="ellipse;shape=umlEntity;whiteSpace=wrap;html=1;" parent="1" vertex="1">
          <mxGeometry x="1425" y="100" width="80" height="80" as="geometry" />
        </mxCell>
        <mxCell id="5E39NEIYK46jYYsnsLjH-336" value="" style="endArrow=none;dashed=1;html=1;rounded=0;entryX=0.479;entryY=1.035;entryDx=0;entryDy=0;entryPerimeter=0;" parent="1" source="5E39NEIYK46jYYsnsLjH-346" target="5E39NEIYK46jYYsnsLjH-334" edge="1">
          <mxGeometry width="50" height="50" relative="1" as="geometry">
            <mxPoint x="1307" y="740" as="sourcePoint" />
            <mxPoint x="1295" y="410" as="targetPoint" />
          </mxGeometry>
        </mxCell>
        <mxCell id="5E39NEIYK46jYYsnsLjH-337" value="" style="endArrow=none;dashed=1;html=1;rounded=0;entryX=0.479;entryY=1.035;entryDx=0;entryDy=0;entryPerimeter=0;" parent="1" source="5E39NEIYK46jYYsnsLjH-341" edge="1">
          <mxGeometry width="50" height="50" relative="1" as="geometry">
            <mxPoint x="1155" y="737" as="sourcePoint" />
            <mxPoint x="1155" y="180" as="targetPoint" />
          </mxGeometry>
        </mxCell>
        <mxCell id="5E39NEIYK46jYYsnsLjH-338" value="" style="endArrow=none;dashed=1;html=1;rounded=0;entryX=0.479;entryY=1.035;entryDx=0;entryDy=0;entryPerimeter=0;" parent="1" source="5E39NEIYK46jYYsnsLjH-403" edge="1">
          <mxGeometry width="50" height="50" relative="1" as="geometry">
            <mxPoint x="1465" y="1200" as="sourcePoint" />
            <mxPoint x="1464.4099999999999" y="180" as="targetPoint" />
          </mxGeometry>
        </mxCell>
        <mxCell id="5E39NEIYK46jYYsnsLjH-339" value="" style="endArrow=none;dashed=1;html=1;rounded=0;entryX=0.479;entryY=1.035;entryDx=0;entryDy=0;entryPerimeter=0;" parent="1" source="5E39NEIYK46jYYsnsLjH-343" edge="1">
          <mxGeometry width="50" height="50" relative="1" as="geometry">
            <mxPoint x="994.4100000000001" y="737" as="sourcePoint" />
            <mxPoint x="994.4100000000001" y="180" as="targetPoint" />
          </mxGeometry>
        </mxCell>
        <mxCell id="5E39NEIYK46jYYsnsLjH-340" value="" style="endArrow=none;dashed=1;html=1;rounded=0;entryX=0.479;entryY=1.035;entryDx=0;entryDy=0;entryPerimeter=0;" parent="1" source="5E39NEIYK46jYYsnsLjH-348" target="5E39NEIYK46jYYsnsLjH-341" edge="1">
          <mxGeometry width="50" height="50" relative="1" as="geometry">
            <mxPoint x="1155" y="737" as="sourcePoint" />
            <mxPoint x="1155" y="180" as="targetPoint" />
          </mxGeometry>
        </mxCell>
        <mxCell id="5E39NEIYK46jYYsnsLjH-341" value="" style="rounded=0;whiteSpace=wrap;html=1;" parent="1" vertex="1">
          <mxGeometry x="1145" y="220" width="20" height="30" as="geometry" />
        </mxCell>
        <mxCell id="5E39NEIYK46jYYsnsLjH-342" value="" style="endArrow=none;dashed=1;html=1;rounded=0;entryX=0.479;entryY=1.035;entryDx=0;entryDy=0;entryPerimeter=0;" parent="1" source="5E39NEIYK46jYYsnsLjH-355" target="5E39NEIYK46jYYsnsLjH-343" edge="1">
          <mxGeometry width="50" height="50" relative="1" as="geometry">
            <mxPoint x="994.4100000000001" y="737" as="sourcePoint" />
            <mxPoint x="994.4100000000001" y="180" as="targetPoint" />
          </mxGeometry>
        </mxCell>
        <mxCell id="5E39NEIYK46jYYsnsLjH-343" value="" style="rounded=0;whiteSpace=wrap;html=1;" parent="1" vertex="1">
          <mxGeometry x="985" y="220" width="20" height="70" as="geometry" />
        </mxCell>
        <mxCell id="5E39NEIYK46jYYsnsLjH-344" value="" style="endArrow=classic;html=1;rounded=0;exitX=1;exitY=0;exitDx=0;exitDy=0;entryX=0;entryY=0;entryDx=0;entryDy=0;" parent="1" source="5E39NEIYK46jYYsnsLjH-343" target="5E39NEIYK46jYYsnsLjH-341" edge="1">
          <mxGeometry width="50" height="50" relative="1" as="geometry">
            <mxPoint x="1245" y="460" as="sourcePoint" />
            <mxPoint x="1295" y="410" as="targetPoint" />
          </mxGeometry>
        </mxCell>
        <mxCell id="5E39NEIYK46jYYsnsLjH-345" value="" style="endArrow=none;dashed=1;html=1;rounded=0;entryX=0.479;entryY=1.035;entryDx=0;entryDy=0;entryPerimeter=0;" parent="1" target="5E39NEIYK46jYYsnsLjH-346" edge="1">
          <mxGeometry width="50" height="50" relative="1" as="geometry">
            <mxPoint x="1308.8566552901023" y="400" as="sourcePoint" />
            <mxPoint x="1307" y="183" as="targetPoint" />
          </mxGeometry>
        </mxCell>
        <mxCell id="5E39NEIYK46jYYsnsLjH-346" value="" style="rounded=0;whiteSpace=wrap;html=1;" parent="1" vertex="1">
          <mxGeometry x="1299" y="260" width="20" height="70" as="geometry" />
        </mxCell>
        <mxCell id="5E39NEIYK46jYYsnsLjH-347" value="" style="endArrow=none;dashed=1;html=1;rounded=0;entryX=0.479;entryY=1.035;entryDx=0;entryDy=0;entryPerimeter=0;" parent="1" source="5E39NEIYK46jYYsnsLjH-352" target="5E39NEIYK46jYYsnsLjH-348" edge="1">
          <mxGeometry width="50" height="50" relative="1" as="geometry">
            <mxPoint x="1155" y="737" as="sourcePoint" />
            <mxPoint x="1155" y="251" as="targetPoint" />
          </mxGeometry>
        </mxCell>
        <mxCell id="5E39NEIYK46jYYsnsLjH-348" value="" style="rounded=0;whiteSpace=wrap;html=1;" parent="1" vertex="1">
          <mxGeometry x="1145" y="260" width="20" height="30" as="geometry" />
        </mxCell>
        <mxCell id="5E39NEIYK46jYYsnsLjH-349" value="" style="endArrow=classic;html=1;rounded=0;entryX=1;entryY=0;entryDx=0;entryDy=0;exitX=0.25;exitY=0;exitDx=0;exitDy=0;" parent="1" source="5E39NEIYK46jYYsnsLjH-346" target="5E39NEIYK46jYYsnsLjH-348" edge="1">
          <mxGeometry width="50" height="50" relative="1" as="geometry">
            <mxPoint x="1295" y="260" as="sourcePoint" />
            <mxPoint x="1155" y="230" as="targetPoint" />
          </mxGeometry>
        </mxCell>
        <mxCell id="5E39NEIYK46jYYsnsLjH-350" value="" style="rounded=0;whiteSpace=wrap;html=1;" parent="1" vertex="1">
          <mxGeometry x="985" y="340" width="20" height="70" as="geometry" />
        </mxCell>
        <mxCell id="5E39NEIYK46jYYsnsLjH-351" value="" style="endArrow=none;dashed=1;html=1;rounded=0;entryX=0.479;entryY=1.035;entryDx=0;entryDy=0;entryPerimeter=0;" parent="1" source="5E39NEIYK46jYYsnsLjH-357" target="5E39NEIYK46jYYsnsLjH-352" edge="1">
          <mxGeometry width="50" height="50" relative="1" as="geometry">
            <mxPoint x="1155" y="737" as="sourcePoint" />
            <mxPoint x="1155" y="291" as="targetPoint" />
          </mxGeometry>
        </mxCell>
        <mxCell id="5E39NEIYK46jYYsnsLjH-352" value="" style="rounded=0;whiteSpace=wrap;html=1;" parent="1" vertex="1">
          <mxGeometry x="1145" y="340" width="20" height="30" as="geometry" />
        </mxCell>
        <mxCell id="5E39NEIYK46jYYsnsLjH-353" value="" style="endArrow=classic;html=1;rounded=0;exitX=1;exitY=0;exitDx=0;exitDy=0;entryX=0;entryY=0;entryDx=0;entryDy=0;" parent="1" edge="1">
          <mxGeometry width="50" height="50" relative="1" as="geometry">
            <mxPoint x="1005" y="340" as="sourcePoint" />
            <mxPoint x="1145" y="340" as="targetPoint" />
          </mxGeometry>
        </mxCell>
        <mxCell id="5E39NEIYK46jYYsnsLjH-354" value="" style="endArrow=none;dashed=1;html=1;rounded=0;entryX=0.479;entryY=1.035;entryDx=0;entryDy=0;entryPerimeter=0;" parent="1" target="5E39NEIYK46jYYsnsLjH-355" edge="1">
          <mxGeometry width="50" height="50" relative="1" as="geometry">
            <mxPoint x="995" y="1200" as="sourcePoint" />
            <mxPoint x="995" y="292" as="targetPoint" />
          </mxGeometry>
        </mxCell>
        <mxCell id="5E39NEIYK46jYYsnsLjH-355" value="" style="rounded=0;whiteSpace=wrap;html=1;" parent="1" vertex="1">
          <mxGeometry x="985" y="460" width="20" height="70" as="geometry" />
        </mxCell>
        <mxCell id="5E39NEIYK46jYYsnsLjH-356" value="" style="endArrow=none;dashed=1;html=1;rounded=0;entryX=0.479;entryY=1.035;entryDx=0;entryDy=0;entryPerimeter=0;" parent="1" target="5E39NEIYK46jYYsnsLjH-357" edge="1">
          <mxGeometry width="50" height="50" relative="1" as="geometry">
            <mxPoint x="1155" y="1200" as="sourcePoint" />
            <mxPoint x="1155" y="371" as="targetPoint" />
          </mxGeometry>
        </mxCell>
        <mxCell id="5E39NEIYK46jYYsnsLjH-357" value="" style="rounded=0;whiteSpace=wrap;html=1;" parent="1" vertex="1">
          <mxGeometry x="1145" y="460" width="20" height="30" as="geometry" />
        </mxCell>
        <mxCell id="5E39NEIYK46jYYsnsLjH-358" value="" style="endArrow=classic;html=1;rounded=0;exitX=1;exitY=0;exitDx=0;exitDy=0;entryX=0;entryY=0;entryDx=0;entryDy=0;" parent="1" edge="1">
          <mxGeometry width="50" height="50" relative="1" as="geometry">
            <mxPoint x="1005" y="460" as="sourcePoint" />
            <mxPoint x="1145" y="460" as="targetPoint" />
          </mxGeometry>
        </mxCell>
        <mxCell id="5E39NEIYK46jYYsnsLjH-359" value="" style="endArrow=none;dashed=1;html=1;rounded=0;entryX=0.479;entryY=1.035;entryDx=0;entryDy=0;entryPerimeter=0;" parent="1" edge="1">
          <mxGeometry width="50" height="50" relative="1" as="geometry">
            <mxPoint x="1305" y="849.48" as="sourcePoint" />
            <mxPoint x="1306.58" y="851.9299999999998" as="targetPoint" />
          </mxGeometry>
        </mxCell>
        <mxCell id="5E39NEIYK46jYYsnsLjH-360" value="" style="endArrow=none;dashed=1;html=1;rounded=0;" parent="1" source="5E39NEIYK46jYYsnsLjH-377" edge="1">
          <mxGeometry width="50" height="50" relative="1" as="geometry">
            <mxPoint x="1305" y="1100" as="sourcePoint" />
            <mxPoint x="1309" y="400" as="targetPoint" />
          </mxGeometry>
        </mxCell>
        <mxCell id="5E39NEIYK46jYYsnsLjH-361" value="" style="endArrow=none;html=1;rounded=0;entryX=1;entryY=0;entryDx=0;entryDy=0;" parent="1" target="5E39NEIYK46jYYsnsLjH-374" edge="1">
          <mxGeometry width="50" height="50" relative="1" as="geometry">
            <mxPoint x="1536" y="790" as="sourcePoint" />
            <mxPoint x="1456" y="820" as="targetPoint" />
          </mxGeometry>
        </mxCell>
        <mxCell id="5E39NEIYK46jYYsnsLjH-362" value="" style="endArrow=none;html=1;rounded=0;" parent="1" edge="1">
          <mxGeometry width="50" height="50" relative="1" as="geometry">
            <mxPoint x="1536" y="790" as="sourcePoint" />
            <mxPoint x="1536" y="810" as="targetPoint" />
          </mxGeometry>
        </mxCell>
        <mxCell id="5E39NEIYK46jYYsnsLjH-363" value="" style="endArrow=classic;html=1;rounded=0;entryX=1;entryY=0.25;entryDx=0;entryDy=0;" parent="1" edge="1">
          <mxGeometry width="50" height="50" relative="1" as="geometry">
            <mxPoint x="1536" y="812" as="sourcePoint" />
            <mxPoint x="1474.9999999999998" y="809.5" as="targetPoint" />
          </mxGeometry>
        </mxCell>
        <mxCell id="5E39NEIYK46jYYsnsLjH-364" value="" style="endArrow=none;dashed=1;html=1;rounded=0;entryX=0.479;entryY=1.035;entryDx=0;entryDy=0;entryPerimeter=0;" parent="1" edge="1">
          <mxGeometry width="50" height="50" relative="1" as="geometry">
            <mxPoint x="1466" y="765" as="sourcePoint" />
            <mxPoint x="1464.58" y="767.45" as="targetPoint" />
          </mxGeometry>
        </mxCell>
        <mxCell id="5E39NEIYK46jYYsnsLjH-365" value="" style="endArrow=classic;html=1;rounded=0;entryX=0;entryY=0;entryDx=0;entryDy=0;exitX=1;exitY=0;exitDx=0;exitDy=0;" parent="1" source="5E39NEIYK46jYYsnsLjH-405" target="5E39NEIYK46jYYsnsLjH-403" edge="1">
          <mxGeometry width="50" height="50" relative="1" as="geometry">
            <mxPoint x="1681" y="660" as="sourcePoint" />
            <mxPoint x="1535" y="660" as="targetPoint" />
          </mxGeometry>
        </mxCell>
        <mxCell id="5E39NEIYK46jYYsnsLjH-366" value="" style="rounded=0;whiteSpace=wrap;html=1;" parent="1" vertex="1">
          <mxGeometry x="985" y="1120" width="20" height="70" as="geometry" />
        </mxCell>
        <mxCell id="5E39NEIYK46jYYsnsLjH-367" value="1 Ввод и название заказа" style="text;html=1;align=center;verticalAlign=middle;resizable=0;points=[];autosize=1;strokeColor=none;fillColor=none;" parent="1" vertex="1">
          <mxGeometry x="985" y="190" width="170" height="30" as="geometry" />
        </mxCell>
        <mxCell id="5E39NEIYK46jYYsnsLjH-368" value="2 Номер заказа" style="text;html=1;align=center;verticalAlign=middle;resizable=0;points=[];autosize=1;strokeColor=none;fillColor=none;" parent="1" vertex="1">
          <mxGeometry x="1175" y="230" width="110" height="30" as="geometry" />
        </mxCell>
        <mxCell id="5E39NEIYK46jYYsnsLjH-369" value="3 Ввод количество товара" style="text;html=1;align=center;verticalAlign=middle;resizable=0;points=[];autosize=1;strokeColor=none;fillColor=none;" parent="1" vertex="1">
          <mxGeometry x="995" y="310" width="170" height="30" as="geometry" />
        </mxCell>
        <mxCell id="5E39NEIYK46jYYsnsLjH-370" value="4 Подтверждение заказа" style="text;html=1;align=center;verticalAlign=middle;resizable=0;points=[];autosize=1;strokeColor=none;fillColor=none;" parent="1" vertex="1">
          <mxGeometry x="990" y="430" width="160" height="30" as="geometry" />
        </mxCell>
        <mxCell id="5E39NEIYK46jYYsnsLjH-371" value="" style="rounded=0;whiteSpace=wrap;html=1;" parent="1" vertex="1">
          <mxGeometry x="1144" y="530" width="20" height="70" as="geometry" />
        </mxCell>
        <mxCell id="5E39NEIYK46jYYsnsLjH-372" value="" style="endArrow=classic;html=1;rounded=0;exitX=1;exitY=0;exitDx=0;exitDy=0;entryX=0;entryY=0;entryDx=0;entryDy=0;" parent="1" target="5E39NEIYK46jYYsnsLjH-377" edge="1">
          <mxGeometry width="50" height="50" relative="1" as="geometry">
            <mxPoint x="1164" y="530" as="sourcePoint" />
            <mxPoint x="1304" y="530" as="targetPoint" />
          </mxGeometry>
        </mxCell>
        <mxCell id="5E39NEIYK46jYYsnsLjH-373" value="" style="endArrow=none;dashed=1;html=1;rounded=0;entryX=0.479;entryY=1.035;entryDx=0;entryDy=0;entryPerimeter=0;" parent="1" target="5E39NEIYK46jYYsnsLjH-374" edge="1">
          <mxGeometry width="50" height="50" relative="1" as="geometry">
            <mxPoint x="1464.8890147225368" y="765" as="sourcePoint" />
            <mxPoint x="1464.4099999999999" y="180" as="targetPoint" />
          </mxGeometry>
        </mxCell>
        <mxCell id="5E39NEIYK46jYYsnsLjH-374" value="" style="rounded=0;whiteSpace=wrap;html=1;" parent="1" vertex="1">
          <mxGeometry x="1455" y="790" width="20" height="70" as="geometry" />
        </mxCell>
        <mxCell id="5E39NEIYK46jYYsnsLjH-375" value="" style="endArrow=none;dashed=1;html=1;rounded=0;entryX=0.479;entryY=1.035;entryDx=0;entryDy=0;entryPerimeter=0;" parent="1" source="5E39NEIYK46jYYsnsLjH-405" edge="1">
          <mxGeometry width="50" height="50" relative="1" as="geometry">
            <mxPoint x="1305" y="1100" as="sourcePoint" />
            <mxPoint x="1306.58" y="726.05" as="targetPoint" />
            <Array as="points" />
          </mxGeometry>
        </mxCell>
        <mxCell id="5E39NEIYK46jYYsnsLjH-376" value="" style="endArrow=none;dashed=1;html=1;rounded=0;entryX=0.479;entryY=1.035;entryDx=0;entryDy=0;entryPerimeter=0;" parent="1" target="5E39NEIYK46jYYsnsLjH-377" edge="1">
          <mxGeometry width="50" height="50" relative="1" as="geometry">
            <mxPoint x="1307.159113796576" y="695" as="sourcePoint" />
            <mxPoint x="1309" y="452" as="targetPoint" />
          </mxGeometry>
        </mxCell>
        <mxCell id="5E39NEIYK46jYYsnsLjH-377" value="" style="rounded=0;whiteSpace=wrap;html=1;" parent="1" vertex="1">
          <mxGeometry x="1299" y="530" width="20" height="30" as="geometry" />
        </mxCell>
        <mxCell id="5E39NEIYK46jYYsnsLjH-378" value="5 Запрос на проверку заказа" style="text;html=1;align=center;verticalAlign=middle;resizable=0;points=[];autosize=1;strokeColor=none;fillColor=none;" parent="1" vertex="1">
          <mxGeometry x="1137" y="500" width="180" height="30" as="geometry" />
        </mxCell>
        <mxCell id="5E39NEIYK46jYYsnsLjH-379" value="" style="rounded=0;whiteSpace=wrap;html=1;" parent="1" vertex="1">
          <mxGeometry x="1299" y="610" width="20" height="70" as="geometry" />
        </mxCell>
        <mxCell id="5E39NEIYK46jYYsnsLjH-380" value="" style="endArrow=none;html=1;rounded=0;entryX=1;entryY=0;entryDx=0;entryDy=0;" parent="1" target="5E39NEIYK46jYYsnsLjH-379" edge="1">
          <mxGeometry width="50" height="50" relative="1" as="geometry">
            <mxPoint x="1375" y="610" as="sourcePoint" />
            <mxPoint x="1295" y="640" as="targetPoint" />
          </mxGeometry>
        </mxCell>
        <mxCell id="5E39NEIYK46jYYsnsLjH-381" value="" style="endArrow=none;html=1;rounded=0;" parent="1" edge="1">
          <mxGeometry width="50" height="50" relative="1" as="geometry">
            <mxPoint x="1375" y="610" as="sourcePoint" />
            <mxPoint x="1375" y="630" as="targetPoint" />
          </mxGeometry>
        </mxCell>
        <mxCell id="5E39NEIYK46jYYsnsLjH-382" value="" style="endArrow=classic;html=1;rounded=0;entryX=1;entryY=0.25;entryDx=0;entryDy=0;" parent="1" target="5E39NEIYK46jYYsnsLjH-379" edge="1">
          <mxGeometry width="50" height="50" relative="1" as="geometry">
            <mxPoint x="1375" y="630" as="sourcePoint" />
            <mxPoint x="1335" y="630" as="targetPoint" />
          </mxGeometry>
        </mxCell>
        <mxCell id="5E39NEIYK46jYYsnsLjH-383" value="6 Проверка полей" style="text;html=1;align=center;verticalAlign=middle;resizable=0;points=[];autosize=1;strokeColor=none;fillColor=none;" parent="1" vertex="1">
          <mxGeometry x="1273.5" y="575" width="120" height="30" as="geometry" />
        </mxCell>
        <mxCell id="5E39NEIYK46jYYsnsLjH-384" value="7 Запрос необходимого &lt;br&gt;количества товара" style="text;html=1;align=center;verticalAlign=middle;resizable=0;points=[];autosize=1;strokeColor=none;fillColor=none;" parent="1" vertex="1">
          <mxGeometry x="1374" y="655" width="150" height="40" as="geometry" />
        </mxCell>
        <mxCell id="5E39NEIYK46jYYsnsLjH-385" value="8 Проверка наличия вычисления суммы" style="text;html=1;align=center;verticalAlign=middle;resizable=0;points=[];autosize=1;strokeColor=none;fillColor=none;" parent="1" vertex="1">
          <mxGeometry x="1360" y="758" width="250" height="30" as="geometry" />
        </mxCell>
        <mxCell id="5E39NEIYK46jYYsnsLjH-386" value="" style="endArrow=none;dashed=1;html=1;rounded=0;entryX=0.479;entryY=1.035;entryDx=0;entryDy=0;entryPerimeter=0;" parent="1" target="5E39NEIYK46jYYsnsLjH-387" edge="1">
          <mxGeometry width="50" height="50" relative="1" as="geometry">
            <mxPoint x="1463" y="945" as="sourcePoint" />
            <mxPoint x="1465" y="537" as="targetPoint" />
          </mxGeometry>
        </mxCell>
        <mxCell id="5E39NEIYK46jYYsnsLjH-387" value="" style="rounded=0;whiteSpace=wrap;html=1;" parent="1" vertex="1">
          <mxGeometry x="1455" y="875" width="20" height="70" as="geometry" />
        </mxCell>
        <mxCell id="5E39NEIYK46jYYsnsLjH-388" value="" style="endArrow=classic;html=1;rounded=0;entryX=1;entryY=0;entryDx=0;entryDy=0;exitX=0.25;exitY=0;exitDx=0;exitDy=0;" parent="1" target="5E39NEIYK46jYYsnsLjH-396" edge="1">
          <mxGeometry width="50" height="50" relative="1" as="geometry">
            <mxPoint x="1460" y="875" as="sourcePoint" />
            <mxPoint x="1321" y="875" as="targetPoint" />
          </mxGeometry>
        </mxCell>
        <mxCell id="5E39NEIYK46jYYsnsLjH-389" value="9 Сумма заказа" style="text;html=1;align=center;verticalAlign=middle;resizable=0;points=[];autosize=1;strokeColor=none;fillColor=none;" parent="1" vertex="1">
          <mxGeometry x="1340" y="845" width="110" height="30" as="geometry" />
        </mxCell>
        <mxCell id="5E39NEIYK46jYYsnsLjH-390" value="" style="rounded=0;whiteSpace=wrap;html=1;" parent="1" vertex="1">
          <mxGeometry x="1145" y="940" width="20" height="30" as="geometry" />
        </mxCell>
        <mxCell id="5E39NEIYK46jYYsnsLjH-391" value="" style="endArrow=none;dashed=1;html=1;rounded=0;entryX=0.479;entryY=1.035;entryDx=0;entryDy=0;entryPerimeter=0;" parent="1" target="5E39NEIYK46jYYsnsLjH-392" edge="1">
          <mxGeometry width="50" height="50" relative="1" as="geometry">
            <mxPoint x="1307" y="1010" as="sourcePoint" />
            <mxPoint x="1309" y="602" as="targetPoint" />
          </mxGeometry>
        </mxCell>
        <mxCell id="5E39NEIYK46jYYsnsLjH-392" value="" style="rounded=0;whiteSpace=wrap;html=1;" parent="1" vertex="1">
          <mxGeometry x="1299" y="940" width="20" height="70" as="geometry" />
        </mxCell>
        <mxCell id="5E39NEIYK46jYYsnsLjH-393" value="" style="endArrow=classic;html=1;rounded=0;entryX=1;entryY=0;entryDx=0;entryDy=0;exitX=0.25;exitY=0;exitDx=0;exitDy=0;" parent="1" edge="1">
          <mxGeometry width="50" height="50" relative="1" as="geometry">
            <mxPoint x="1304" y="940" as="sourcePoint" />
            <mxPoint x="1165" y="940" as="targetPoint" />
          </mxGeometry>
        </mxCell>
        <mxCell id="5E39NEIYK46jYYsnsLjH-394" value="" style="rounded=0;whiteSpace=wrap;html=1;" parent="1" vertex="1">
          <mxGeometry x="1143" y="1120" width="21" height="30" as="geometry" />
        </mxCell>
        <mxCell id="5E39NEIYK46jYYsnsLjH-395" value="" style="endArrow=none;dashed=1;html=1;rounded=0;entryX=0.479;entryY=1.035;entryDx=0;entryDy=0;entryPerimeter=0;" parent="1" target="5E39NEIYK46jYYsnsLjH-396" edge="1">
          <mxGeometry width="50" height="50" relative="1" as="geometry">
            <mxPoint x="1307" y="1200" as="sourcePoint" />
            <mxPoint x="1307" y="726" as="targetPoint" />
            <Array as="points">
              <mxPoint x="1307" y="910" />
            </Array>
          </mxGeometry>
        </mxCell>
        <mxCell id="5E39NEIYK46jYYsnsLjH-396" value="" style="rounded=0;whiteSpace=wrap;html=1;" parent="1" vertex="1">
          <mxGeometry x="1297" y="875" width="20" height="30" as="geometry" />
        </mxCell>
        <mxCell id="5E39NEIYK46jYYsnsLjH-397" value="10 Сумма заказа" style="text;html=1;align=center;verticalAlign=middle;resizable=0;points=[];autosize=1;strokeColor=none;fillColor=none;" parent="1" vertex="1">
          <mxGeometry x="1170" y="910" width="120" height="30" as="geometry" />
        </mxCell>
        <mxCell id="5E39NEIYK46jYYsnsLjH-398" value="" style="rounded=0;whiteSpace=wrap;html=1;" parent="1" vertex="1">
          <mxGeometry x="985" y="1030" width="20" height="30" as="geometry" />
        </mxCell>
        <mxCell id="5E39NEIYK46jYYsnsLjH-399" value="" style="endArrow=classic;html=1;rounded=0;entryX=1;entryY=0;entryDx=0;entryDy=0;exitX=0;exitY=0;exitDx=0;exitDy=0;" parent="1" source="5E39NEIYK46jYYsnsLjH-400" target="5E39NEIYK46jYYsnsLjH-398" edge="1">
          <mxGeometry width="50" height="50" relative="1" as="geometry">
            <mxPoint x="1144" y="1030" as="sourcePoint" />
            <mxPoint x="1005" y="1030" as="targetPoint" />
          </mxGeometry>
        </mxCell>
        <mxCell id="5E39NEIYK46jYYsnsLjH-400" value="" style="rounded=0;whiteSpace=wrap;html=1;" parent="1" vertex="1">
          <mxGeometry x="1144" y="1028" width="20" height="70" as="geometry" />
        </mxCell>
        <mxCell id="5E39NEIYK46jYYsnsLjH-401" value="11 Заказ принят" style="text;html=1;align=center;verticalAlign=middle;resizable=0;points=[];autosize=1;strokeColor=none;fillColor=none;" parent="1" vertex="1">
          <mxGeometry x="1030" y="998" width="110" height="30" as="geometry" />
        </mxCell>
        <mxCell id="5E39NEIYK46jYYsnsLjH-402" value="" style="endArrow=none;dashed=1;html=1;rounded=0;entryX=0.479;entryY=1.035;entryDx=0;entryDy=0;entryPerimeter=0;" parent="1" target="5E39NEIYK46jYYsnsLjH-403" edge="1">
          <mxGeometry width="50" height="50" relative="1" as="geometry">
            <mxPoint x="1465" y="1200" as="sourcePoint" />
            <mxPoint x="1464.4099999999999" y="180" as="targetPoint" />
          </mxGeometry>
        </mxCell>
        <mxCell id="5E39NEIYK46jYYsnsLjH-403" value="" style="rounded=0;whiteSpace=wrap;html=1;" parent="1" vertex="1">
          <mxGeometry x="1455" y="695" width="20" height="30" as="geometry" />
        </mxCell>
        <mxCell id="5E39NEIYK46jYYsnsLjH-404" value="" style="endArrow=none;dashed=1;html=1;rounded=0;entryX=0.479;entryY=1.035;entryDx=0;entryDy=0;entryPerimeter=0;" parent="1" source="5E39NEIYK46jYYsnsLjH-396" target="5E39NEIYK46jYYsnsLjH-405" edge="1">
          <mxGeometry width="50" height="50" relative="1" as="geometry">
            <mxPoint x="1307" y="875" as="sourcePoint" />
            <mxPoint x="1306.58" y="726.05" as="targetPoint" />
            <Array as="points" />
          </mxGeometry>
        </mxCell>
        <mxCell id="5E39NEIYK46jYYsnsLjH-405" value="" style="rounded=0;whiteSpace=wrap;html=1;" parent="1" vertex="1">
          <mxGeometry x="1297" y="695" width="20" height="70" as="geometry" />
        </mxCell>
        <mxCell id="5E39NEIYK46jYYsnsLjH-406" value="Opt" style="shape=umlFrame;whiteSpace=wrap;html=1;pointerEvents=0;" parent="1" vertex="1">
          <mxGeometry x="930" y="1100" width="300" height="152" as="geometry" />
        </mxCell>
        <mxCell id="5E39NEIYK46jYYsnsLjH-407" value="12 Отмена заказа" style="text;html=1;align=center;verticalAlign=middle;resizable=0;points=[];autosize=1;strokeColor=none;fillColor=none;" parent="1" vertex="1">
          <mxGeometry x="995" y="1100" width="120" height="30" as="geometry" />
        </mxCell>
        <mxCell id="5E39NEIYK46jYYsnsLjH-408" value="" style="endArrow=classic;html=1;rounded=0;entryX=0;entryY=0;entryDx=0;entryDy=0;exitX=1;exitY=0;exitDx=0;exitDy=0;" parent="1" source="5E39NEIYK46jYYsnsLjH-366" target="5E39NEIYK46jYYsnsLjH-394" edge="1">
          <mxGeometry width="50" height="50" relative="1" as="geometry">
            <mxPoint x="1154" y="1038" as="sourcePoint" />
            <mxPoint x="1015" y="1040" as="targetPoint" />
          </mxGeometry>
        </mxCell>
        <mxCell id="5E39NEIYK46jYYsnsLjH-409" value="клиент" style="shape=umlActor;verticalLabelPosition=bottom;verticalAlign=top;html=1;" parent="1" vertex="1">
          <mxGeometry x="230" y="100" width="30" height="60" as="geometry" />
        </mxCell>
        <mxCell id="5E39NEIYK46jYYsnsLjH-410" value="Форма авторизации" style="shape=umlBoundary;whiteSpace=wrap;html=1;" parent="1" vertex="1">
          <mxGeometry x="320" y="100" width="100" height="80" as="geometry" />
        </mxCell>
        <mxCell id="5E39NEIYK46jYYsnsLjH-411" value="Менеджер доступа" style="ellipse;shape=umlControl;whiteSpace=wrap;html=1;" parent="1" vertex="1">
          <mxGeometry x="480" y="100" width="70" height="80" as="geometry" />
        </mxCell>
        <mxCell id="5E39NEIYK46jYYsnsLjH-412" value="БД" style="ellipse;shape=umlEntity;whiteSpace=wrap;html=1;" parent="1" vertex="1">
          <mxGeometry x="620" y="100" width="80" height="80" as="geometry" />
        </mxCell>
        <mxCell id="5E39NEIYK46jYYsnsLjH-413" value="" style="endArrow=none;dashed=1;html=1;rounded=0;" parent="1" source="5E39NEIYK46jYYsnsLjH-415" target="5E39NEIYK46jYYsnsLjH-409" edge="1">
          <mxGeometry width="50" height="50" relative="1" as="geometry">
            <mxPoint x="240" y="580" as="sourcePoint" />
            <mxPoint x="240" y="200" as="targetPoint" />
            <Array as="points" />
          </mxGeometry>
        </mxCell>
        <mxCell id="5E39NEIYK46jYYsnsLjH-414" value="" style="endArrow=none;dashed=1;html=1;rounded=0;" parent="1" source="5E39NEIYK46jYYsnsLjH-441" target="5E39NEIYK46jYYsnsLjH-415" edge="1">
          <mxGeometry width="50" height="50" relative="1" as="geometry">
            <mxPoint x="240" y="580" as="sourcePoint" />
            <mxPoint x="240" y="200" as="targetPoint" />
            <Array as="points">
              <mxPoint x="240" y="260" />
            </Array>
          </mxGeometry>
        </mxCell>
        <mxCell id="5E39NEIYK46jYYsnsLjH-415" value="" style="html=1;points=[[0,0,0,0,5],[0,1,0,0,-5],[1,0,0,0,5],[1,1,0,0,-5]];perimeter=orthogonalPerimeter;outlineConnect=0;targetShapes=umlLifeline;portConstraint=eastwest;newEdgeStyle={&quot;curved&quot;:0,&quot;rounded&quot;:0};" parent="1" vertex="1">
          <mxGeometry x="240" y="220" width="10" height="80" as="geometry" />
        </mxCell>
        <mxCell id="5E39NEIYK46jYYsnsLjH-416" value="" style="endArrow=none;dashed=1;html=1;rounded=0;" parent="1" source="5E39NEIYK46jYYsnsLjH-421" edge="1">
          <mxGeometry width="50" height="50" relative="1" as="geometry">
            <mxPoint x="380" y="580" as="sourcePoint" />
            <mxPoint x="380" y="280" as="targetPoint" />
            <Array as="points">
              <mxPoint x="380" y="200" />
            </Array>
          </mxGeometry>
        </mxCell>
        <mxCell id="5E39NEIYK46jYYsnsLjH-417" value="" style="endArrow=none;dashed=1;html=1;rounded=0;" parent="1" edge="1">
          <mxGeometry width="50" height="50" relative="1" as="geometry">
            <mxPoint x="514.4099999999999" y="220" as="sourcePoint" />
            <mxPoint x="514" y="817.454501065341" as="targetPoint" />
            <Array as="points">
              <mxPoint x="514" y="180" />
            </Array>
          </mxGeometry>
        </mxCell>
        <mxCell id="5E39NEIYK46jYYsnsLjH-418" value="" style="endArrow=none;dashed=1;html=1;rounded=0;" parent="1" source="5E39NEIYK46jYYsnsLjH-428" edge="1">
          <mxGeometry width="50" height="50" relative="1" as="geometry">
            <mxPoint x="660" y="580" as="sourcePoint" />
            <mxPoint x="660" y="800" as="targetPoint" />
            <Array as="points">
              <mxPoint x="660" y="180" />
            </Array>
          </mxGeometry>
        </mxCell>
        <mxCell id="5E39NEIYK46jYYsnsLjH-419" value="" style="endArrow=none;dashed=1;html=1;rounded=0;" parent="1" edge="1">
          <mxGeometry width="50" height="50" relative="1" as="geometry">
            <mxPoint x="514.4099999999999" y="580" as="sourcePoint" />
            <mxPoint x="514.4099999999999" y="350" as="targetPoint" />
            <Array as="points">
              <mxPoint x="514.4099999999999" y="410" />
            </Array>
          </mxGeometry>
        </mxCell>
        <mxCell id="5E39NEIYK46jYYsnsLjH-420" value="" style="endArrow=none;dashed=1;html=1;rounded=0;" parent="1" target="5E39NEIYK46jYYsnsLjH-421" edge="1">
          <mxGeometry width="50" height="50" relative="1" as="geometry">
            <mxPoint x="380" y="823.3333333333335" as="sourcePoint" />
            <mxPoint x="380" y="280" as="targetPoint" />
            <Array as="points" />
          </mxGeometry>
        </mxCell>
        <mxCell id="5E39NEIYK46jYYsnsLjH-421" value="" style="html=1;points=[[0,0,0,0,5],[0,1,0,0,-5],[1,0,0,0,5],[1,1,0,0,-5]];perimeter=orthogonalPerimeter;outlineConnect=0;targetShapes=umlLifeline;portConstraint=eastwest;newEdgeStyle={&quot;curved&quot;:0,&quot;rounded&quot;:0};" parent="1" vertex="1">
          <mxGeometry x="380" y="220" width="10" height="80" as="geometry" />
        </mxCell>
        <mxCell id="5E39NEIYK46jYYsnsLjH-422" value="Ввод данных" style="html=1;verticalAlign=bottom;endArrow=block;curved=0;rounded=0;" parent="1" edge="1">
          <mxGeometry width="80" relative="1" as="geometry">
            <mxPoint x="250" y="260" as="sourcePoint" />
            <mxPoint x="380" y="260" as="targetPoint" />
          </mxGeometry>
        </mxCell>
        <mxCell id="5E39NEIYK46jYYsnsLjH-423" value="Отправка данных &lt;br&gt;" style="html=1;verticalAlign=bottom;endArrow=block;curved=0;rounded=0;" parent="1" edge="1">
          <mxGeometry x="-0.0769" y="9" width="80" relative="1" as="geometry">
            <mxPoint x="390" y="268" as="sourcePoint" />
            <mxPoint x="510" y="268" as="targetPoint" />
            <Array as="points">
              <mxPoint x="440" y="268" />
            </Array>
            <mxPoint as="offset" />
          </mxGeometry>
        </mxCell>
        <mxCell id="5E39NEIYK46jYYsnsLjH-424" value="" style="html=1;points=[[0,0,0,0,5],[0,1,0,0,-5],[1,0,0,0,5],[1,1,0,0,-5]];perimeter=orthogonalPerimeter;outlineConnect=0;targetShapes=umlLifeline;portConstraint=eastwest;newEdgeStyle={&quot;curved&quot;:0,&quot;rounded&quot;:0};" parent="1" vertex="1">
          <mxGeometry x="510" y="210" width="10" height="530" as="geometry" />
        </mxCell>
        <mxCell id="5E39NEIYK46jYYsnsLjH-425" value="Проверка&amp;nbsp;" style="html=1;align=left;spacingLeft=2;endArrow=block;rounded=0;edgeStyle=orthogonalEdgeStyle;curved=0;rounded=0;" parent="1" target="5E39NEIYK46jYYsnsLjH-424" edge="1">
          <mxGeometry relative="1" as="geometry">
            <mxPoint x="530" y="280" as="sourcePoint" />
            <Array as="points">
              <mxPoint x="560" y="280" />
              <mxPoint x="560" y="300" />
            </Array>
            <mxPoint x="530" y="310" as="targetPoint" />
          </mxGeometry>
        </mxCell>
        <mxCell id="5E39NEIYK46jYYsnsLjH-426" value="Регистрация даннх" style="html=1;verticalAlign=bottom;endArrow=block;curved=0;rounded=0;" parent="1" edge="1">
          <mxGeometry x="0.037" y="10" width="80" relative="1" as="geometry">
            <mxPoint x="520" y="340" as="sourcePoint" />
            <mxPoint x="650" y="340" as="targetPoint" />
            <Array as="points">
              <mxPoint x="560" y="340" />
            </Array>
            <mxPoint as="offset" />
          </mxGeometry>
        </mxCell>
        <mxCell id="5E39NEIYK46jYYsnsLjH-427" value="" style="endArrow=none;dashed=1;html=1;rounded=0;" parent="1" target="5E39NEIYK46jYYsnsLjH-428" edge="1">
          <mxGeometry width="50" height="50" relative="1" as="geometry">
            <mxPoint x="660" y="580" as="sourcePoint" />
            <mxPoint x="660" y="280" as="targetPoint" />
            <Array as="points">
              <mxPoint x="660" y="410" />
            </Array>
          </mxGeometry>
        </mxCell>
        <mxCell id="5E39NEIYK46jYYsnsLjH-428" value="" style="html=1;points=[[0,0,0,0,5],[0,1,0,0,-5],[1,0,0,0,5],[1,1,0,0,-5]];perimeter=orthogonalPerimeter;outlineConnect=0;targetShapes=umlLifeline;portConstraint=eastwest;newEdgeStyle={&quot;curved&quot;:0,&quot;rounded&quot;:0};" parent="1" vertex="1">
          <mxGeometry x="655" y="270" width="10" height="430" as="geometry" />
        </mxCell>
        <mxCell id="5E39NEIYK46jYYsnsLjH-429" value="" style="endArrow=none;dashed=1;html=1;rounded=0;" parent="1" target="5E39NEIYK46jYYsnsLjH-430" edge="1">
          <mxGeometry width="50" height="50" relative="1" as="geometry">
            <mxPoint x="380" y="580" as="sourcePoint" />
            <mxPoint x="380" y="300" as="targetPoint" />
            <Array as="points">
              <mxPoint x="380" y="410" />
            </Array>
          </mxGeometry>
        </mxCell>
        <mxCell id="5E39NEIYK46jYYsnsLjH-430" value="" style="html=1;points=[[0,0,0,0,5],[0,1,0,0,-5],[1,0,0,0,5],[1,1,0,0,-5]];perimeter=orthogonalPerimeter;outlineConnect=0;targetShapes=umlLifeline;portConstraint=eastwest;newEdgeStyle={&quot;curved&quot;:0,&quot;rounded&quot;:0};" parent="1" vertex="1">
          <mxGeometry x="370" y="330" width="10" height="420" as="geometry" />
        </mxCell>
        <mxCell id="5E39NEIYK46jYYsnsLjH-431" value="" style="endArrow=none;dashed=1;html=1;rounded=0;" parent="1" source="5E39NEIYK46jYYsnsLjH-441" edge="1">
          <mxGeometry width="50" height="50" relative="1" as="geometry">
            <mxPoint x="240" y="720" as="sourcePoint" />
            <mxPoint x="240" y="510" as="targetPoint" />
            <Array as="points" />
          </mxGeometry>
        </mxCell>
        <mxCell id="5E39NEIYK46jYYsnsLjH-432" value="Alt" style="shape=umlFrame;whiteSpace=wrap;html=1;pointerEvents=0;" parent="1" vertex="1">
          <mxGeometry x="120" y="310" width="600" height="310" as="geometry" />
        </mxCell>
        <mxCell id="5E39NEIYK46jYYsnsLjH-433" value="result() true" style="html=1;verticalAlign=bottom;endArrow=open;dashed=1;endSize=8;curved=0;rounded=0;" parent="1" target="5E39NEIYK46jYYsnsLjH-430" edge="1">
          <mxGeometry relative="1" as="geometry">
            <mxPoint x="500" y="379.3800000000001" as="sourcePoint" />
            <mxPoint x="420" y="379.3800000000001" as="targetPoint" />
          </mxGeometry>
        </mxCell>
        <mxCell id="5E39NEIYK46jYYsnsLjH-434" value="ошибка (Форма заполнена&lt;br&gt;неверно)" style="html=1;verticalAlign=bottom;endArrow=open;dashed=1;endSize=8;curved=0;rounded=0;" parent="1" target="5E39NEIYK46jYYsnsLjH-430" edge="1">
          <mxGeometry x="-0.0769" y="-20" relative="1" as="geometry">
            <mxPoint x="510" y="490" as="sourcePoint" />
            <mxPoint x="380" y="500" as="targetPoint" />
            <Array as="points">
              <mxPoint x="450" y="490" />
            </Array>
            <mxPoint as="offset" />
          </mxGeometry>
        </mxCell>
        <mxCell id="5E39NEIYK46jYYsnsLjH-435" value="ошибка(Форма заполнена&lt;br&gt;неверно)" style="html=1;verticalAlign=bottom;endArrow=open;dashed=1;endSize=8;curved=0;rounded=0;entryX=1;entryY=0.842;entryDx=0;entryDy=0;entryPerimeter=0;" parent="1" edge="1">
          <mxGeometry x="-0.0769" y="-20" relative="1" as="geometry">
            <mxPoint x="375" y="503.3800000000001" as="sourcePoint" />
            <mxPoint x="245" y="503.3800000000001" as="targetPoint" />
            <Array as="points">
              <mxPoint x="315" y="503.3800000000001" />
            </Array>
            <mxPoint as="offset" />
          </mxGeometry>
        </mxCell>
        <mxCell id="5E39NEIYK46jYYsnsLjH-436" value="Форма верна" style="text;html=1;align=center;verticalAlign=middle;resizable=0;points=[];autosize=1;strokeColor=none;fillColor=none;" parent="1" vertex="1">
          <mxGeometry x="245" y="360" width="100" height="30" as="geometry" />
        </mxCell>
        <mxCell id="5E39NEIYK46jYYsnsLjH-437" value="Регистрация прошла&amp;nbsp;" style="html=1;verticalAlign=bottom;endArrow=open;dashed=1;endSize=8;curved=0;rounded=0;" parent="1" target="5E39NEIYK46jYYsnsLjH-424" edge="1">
          <mxGeometry relative="1" as="geometry">
            <mxPoint x="650" y="650" as="sourcePoint" />
            <mxPoint x="570" y="650" as="targetPoint" />
          </mxGeometry>
        </mxCell>
        <mxCell id="5E39NEIYK46jYYsnsLjH-438" value="Регистрация прошла&amp;nbsp;" style="html=1;verticalAlign=bottom;endArrow=open;dashed=1;endSize=8;curved=0;rounded=0;" parent="1" edge="1">
          <mxGeometry relative="1" as="geometry">
            <mxPoint x="510" y="660" as="sourcePoint" />
            <mxPoint x="380" y="660" as="targetPoint" />
          </mxGeometry>
        </mxCell>
        <mxCell id="5E39NEIYK46jYYsnsLjH-439" value="Регистрация прошла&amp;nbsp;" style="html=1;verticalAlign=bottom;endArrow=open;dashed=1;endSize=8;curved=0;rounded=0;" parent="1" source="5E39NEIYK46jYYsnsLjH-430" edge="1">
          <mxGeometry relative="1" as="geometry">
            <mxPoint x="375" y="666" as="sourcePoint" />
            <mxPoint x="245" y="666" as="targetPoint" />
          </mxGeometry>
        </mxCell>
        <mxCell id="5E39NEIYK46jYYsnsLjH-440" value="" style="endArrow=none;dashed=1;html=1;rounded=0;" parent="1" target="5E39NEIYK46jYYsnsLjH-441" edge="1">
          <mxGeometry width="50" height="50" relative="1" as="geometry">
            <mxPoint x="240" y="820" as="sourcePoint" />
            <mxPoint x="240" y="510" as="targetPoint" />
            <Array as="points" />
          </mxGeometry>
        </mxCell>
        <mxCell id="5E39NEIYK46jYYsnsLjH-441" value="" style="html=1;points=[[0,0,0,0,5],[0,1,0,0,-5],[1,0,0,0,5],[1,1,0,0,-5]];perimeter=orthogonalPerimeter;outlineConnect=0;targetShapes=umlLifeline;portConstraint=eastwest;newEdgeStyle={&quot;curved&quot;:0,&quot;rounded&quot;:0};" parent="1" vertex="1">
          <mxGeometry x="235" y="400" width="10" height="300" as="geometry" />
        </mxCell>
      </root>
    </mxGraphModel>
  </diagram>
</mxfile>
